<?xml version="1.0" encoding="UTF-8" standalone="no"?><svg xmlns:svg="http://www.w3.org/2000/svg" xmlns="http://www.w3.org/2000/svg" xmlns:xlink="http://www.w3.org/1999/xlink" version="1.0" width="100px" height="100px" viewBox="0 0 128 128" xml:space="preserve"><rect x="0" y="0" width="100%" height="100%" fill="#FFFFFF" /><g><path d="M59.6 0h8v40h-8V0z" fill="#009999"/><path d="M59.6 0h8v40h-8V0z" fill="#ccebeb" transform="rotate(30 64 64)"/><path d="M59.6 0h8v40h-8V0z" fill="#ccebeb" transform="rotate(60 64 64)"/><path d="M59.6 0h8v40h-8V0z" fill="#ccebeb" transform="rotate(90 64 64)"/><path d="M59.6 0h8v40h-8V0z" fill="#ccebeb" transform="rotate(120 64 64)"/><path d="M59.6 0h8v40h-8V0z" fill="#b2e0e0" transform="rotate(150 64 64)"/><path d="M59.6 0h8v40h-8V0z" fill="#99d6d6" transform="rotate(180 64 64)"/><path d="M59.6 0h8v40h-8V0z" fill="#7fcccc" transform="rotate(210 64 64)"/><path d="M59.6 0h8v40h-8V0z" fill="#66c2c2" transform="rotate(240 64 64)"/><path d="M59.6 0h8v40h-8V0z" fill="#4cb7b7" transform="rotate(270 64 64)"/><path d="M59.6 0h8v40h-8V0z" fill="#33adad" transform="rotate(300 64 64)"/><path d="M59.6 0h8v40h-8V0z" fill="#19a3a3" transform="rotate(330 64 64)"/><animateTransform attributeName="transform" type="rotate" values="0 64 64;30 64 64;60 64 64;90 64 64;120 64 64;150 64 64;180 64 64;210 64 64;240 64 64;270 64 64;300 64 64;330 64 64" calcMode="discrete" dur="1080ms" repeatCount="indefinite"></animateTransform></g></svg>